<svg xmlns="http://www.w3.org/2000/svg" xmlns:xlink="http://www.w3.org/1999/xlink" width="500" zoomAndPan="magnify" viewBox="0 0 375 374.999991" height="500" preserveAspectRatio="xMidYMid meet" version="1.0"><defs><clipPath id="1015e7ea6f"><path d="M 8.6875 8.6875 L 366.4375 8.6875 L 366.4375 366.4375 L 8.6875 366.4375 Z M 8.6875 8.6875 " clip-rule="nonzero"/></clipPath></defs><rect x="-37.5" width="450" fill="#ffffff" y="-37.499999" height="449.999989" fill-opacity="1"/><rect x="-37.5" width="450" fill="#070707" y="-37.499999" height="449.999989" fill-opacity="1"/><g clip-path="url(#1015e7ea6f)"><path fill="#ffffff" d="M 293.097656 8.6875 L 81.902344 8.6875 C 41.53125 8.6875 8.6875 41.53125 8.6875 81.902344 L 8.6875 293.097656 C 8.6875 333.46875 41.53125 366.308594 81.902344 366.308594 L 293.097656 366.308594 C 333.46875 366.308594 366.308594 333.46875 366.308594 293.097656 L 366.308594 81.902344 C 366.308594 41.53125 333.46875 8.6875 293.097656 8.6875 Z M 345.273438 293.097656 C 345.273438 321.867188 321.867188 345.273438 293.097656 345.273438 L 81.902344 345.273438 C 53.132812 345.273438 29.726562 321.867188 29.726562 293.097656 L 29.726562 81.902344 C 29.726562 53.132812 53.132812 29.726562 81.902344 29.726562 L 293.097656 29.726562 C 321.867188 29.726562 345.273438 53.132812 345.273438 81.902344 Z M 345.273438 293.097656 " fill-opacity="1" fill-rule="nonzero"/></g><path fill="#ffffff" d="M 117.378906 150.773438 L 75.304688 150.773438 C 69.496094 150.773438 64.785156 155.484375 64.785156 161.292969 L 64.785156 298.378906 C 64.785156 304.1875 69.496094 308.898438 75.304688 308.898438 L 117.378906 308.898438 C 123.1875 308.898438 127.894531 304.1875 127.894531 298.378906 L 127.894531 161.292969 C 127.894531 155.484375 123.1875 150.773438 117.378906 150.773438 Z M 106.859375 287.863281 L 85.824219 287.863281 L 85.824219 171.808594 L 106.859375 171.808594 Z M 106.859375 287.863281 " fill-opacity="1" fill-rule="nonzero"/><path fill="#ffffff" d="M 212.042969 169.519531 L 212.042969 161.292969 C 212.042969 155.484375 207.332031 150.773438 201.523438 150.773438 L 159.449219 150.773438 C 153.640625 150.773438 148.933594 155.484375 148.933594 161.292969 L 148.933594 298.378906 C 148.933594 304.1875 153.640625 308.898438 159.449219 308.898438 L 201.523438 308.898438 C 207.332031 308.898438 212.042969 304.1875 212.042969 298.378906 L 212.042969 248.242188 C 212.042969 238.578125 219.90625 230.710938 229.574219 230.710938 C 239.238281 230.710938 247.101562 238.578125 247.101562 248.242188 L 247.101562 298.378906 C 247.101562 304.1875 251.8125 308.898438 257.621094 308.898438 L 299.695312 308.898438 C 305.503906 308.898438 310.210938 304.1875 310.210938 298.378906 L 310.210938 248.242188 C 310.210938 196.871094 262.449219 158.28125 212.042969 169.519531 Z M 289.175781 287.863281 L 268.140625 287.863281 L 268.140625 248.242188 C 268.140625 226.976562 250.839844 209.675781 229.574219 209.675781 C 208.308594 209.675781 191.003906 226.976562 191.003906 248.242188 L 191.003906 287.863281 L 169.96875 287.863281 L 169.96875 171.808594 L 191.003906 171.808594 L 191.003906 183.980469 C 191.003906 191.5625 198.800781 196.652344 205.746094 193.617188 C 244.746094 176.527344 289.175781 205.125 289.175781 248.242188 Z M 289.175781 287.863281 " fill-opacity="1" fill-rule="nonzero"/><path fill="#ffffff" d="M 96.339844 66.101562 C 78.941406 66.101562 64.785156 80.257812 64.785156 97.65625 C 64.785156 115.054688 78.941406 129.210938 96.339844 129.210938 C 113.742188 129.210938 127.894531 115.054688 127.894531 97.65625 C 127.894531 80.257812 113.742188 66.101562 96.339844 66.101562 Z M 96.339844 108.175781 C 90.542969 108.175781 85.824219 103.457031 85.824219 97.65625 C 85.824219 91.855469 90.542969 87.136719 96.339844 87.136719 C 102.140625 87.136719 106.859375 91.855469 106.859375 97.65625 C 106.859375 103.457031 102.140625 108.175781 96.339844 108.175781 Z M 96.339844 108.175781 " fill-opacity="1" fill-rule="nonzero"/></svg>