<svg xmlns="http://www.w3.org/2000/svg" xmlns:xlink="http://www.w3.org/1999/xlink" width="500" zoomAndPan="magnify" viewBox="0 0 375 374.999991" height="500" preserveAspectRatio="xMidYMid meet" version="1.0"><defs><clipPath id="7546fbe7df"><path d="M 81 165.292969 L 294 165.292969 L 294 209 L 81 209 Z M 81 165.292969 " clip-rule="nonzero"/></clipPath></defs><rect x="-37.5" width="450" fill="#ffffff" y="-37.499999" height="449.999989" fill-opacity="1"/><rect x="-37.5" width="450" fill="#131118" y="-37.499999" height="449.999989" fill-opacity="1"/><g clip-path="url(#7546fbe7df)"><path fill="#ffffff" d="M 99.855469 165.625 C 101.71875 165.386719 103.550781 165.3125 105.355469 165.390625 C 105.441406 165.394531 105.523438 165.398438 105.609375 165.40625 C 109.324219 165.617188 112.625 165.753906 115.515625 165.8125 L 115.511719 165.8125 C 121.734375 165.945312 128.71875 166.042969 136.453125 166.105469 L 136.347656 166.105469 C 158.210938 166.175781 182.871094 166.21875 210.328125 166.226562 L 210.386719 166.226562 C 217.460938 166.246094 224.078125 166.300781 230.238281 166.386719 C 250.710938 166.675781 265.46875 167.160156 274.507812 167.832031 C 285.839844 168.671875 294.34375 178.542969 293.5 189.871094 C 292.660156 201.203125 282.789062 209.707031 271.457031 208.863281 C 263.238281 208.253906 249.304688 207.808594 229.65625 207.53125 L 229.660156 207.53125 C 223.648438 207.445312 217.183594 207.394531 210.261719 207.375 L 210.316406 207.375 C 182.8125 207.363281 158.109375 207.324219 136.214844 207.253906 C 136.179688 207.253906 136.140625 207.253906 136.109375 207.253906 C 128.203125 207.1875 121.054688 207.085938 114.65625 206.953125 L 114.652344 206.953125 C 111.269531 206.882812 107.472656 206.726562 103.261719 206.484375 L 103.511719 206.5 C 104.050781 206.523438 104.554688 206.503906 105.023438 206.445312 C 93.75 207.871094 83.453125 199.890625 82.027344 188.617188 C 80.601562 177.34375 88.585938 167.050781 99.855469 165.625 Z M 99.855469 165.625 " fill-opacity="1" fill-rule="nonzero"/></g></svg>