<svg xmlns="http://www.w3.org/2000/svg" xmlns:xlink="http://www.w3.org/1999/xlink" width="500" zoomAndPan="magnify" viewBox="0 0 375 374.999991" height="500" preserveAspectRatio="xMidYMid meet" version="1.0"><defs><clipPath id="86a4ea13bf"><path d="M 168 87.578125 L 211 87.578125 L 211 286 L 168 286 Z M 168 87.578125 " clip-rule="nonzero"/></clipPath></defs><rect x="-37.5" width="450" fill="#ffffff" y="-37.499999" height="449.999989" fill-opacity="1"/><rect x="-37.5" width="450" fill="#131118" y="-37.499999" height="449.999989" fill-opacity="1"/><g clip-path="url(#86a4ea13bf)"><path fill="#ffffff" d="M 172.058594 269.785156 C 171.777344 268.050781 171.644531 266.339844 171.660156 264.648438 C 171.664062 264.570312 171.664062 264.492188 171.664062 264.410156 C 171.742188 260.933594 171.761719 257.84375 171.726562 255.140625 L 171.726562 255.144531 C 171.644531 249.320312 171.507812 242.789062 171.316406 235.558594 L 171.316406 235.65625 C 170.671875 215.222656 169.902344 192.171875 169.015625 166.5 L 169.011719 166.449219 C 168.804688 159.835938 168.636719 153.648438 168.515625 147.886719 C 168.121094 128.742188 168.085938 114.929688 168.421875 106.457031 C 168.839844 95.839844 177.785156 87.570312 188.402344 87.988281 C 199.023438 88.40625 207.292969 97.351562 206.875 107.96875 C 206.570312 115.671875 206.613281 128.710938 206.992188 147.085938 C 207.109375 152.707031 207.273438 158.753906 207.480469 165.222656 L 207.476562 165.171875 C 208.367188 190.875 209.136719 213.964844 209.78125 234.441406 C 209.785156 234.472656 209.785156 234.507812 209.785156 234.539062 C 209.980469 241.929688 210.121094 248.617188 210.207031 254.601562 L 210.207031 254.605469 C 210.25 257.769531 210.230469 261.324219 210.140625 265.265625 L 210.144531 265.03125 C 210.148438 264.523438 210.117188 264.054688 210.046875 263.621094 C 211.75 274.109375 204.625 283.996094 194.132812 285.695312 C 183.644531 287.398438 173.761719 280.273438 172.058594 269.785156 Z M 172.058594 269.785156 " fill-opacity="1" fill-rule="nonzero"/></g><path fill="#ffffff" d="M 105.171875 166.074219 C 106.902344 165.796875 108.613281 165.664062 110.304688 165.679688 C 110.382812 165.679688 110.464844 165.679688 110.542969 165.683594 C 114.023438 165.761719 117.113281 165.78125 119.8125 165.742188 L 119.808594 165.742188 C 125.632812 165.660156 132.164062 165.523438 139.394531 165.332031 L 139.296875 165.335938 C 159.730469 164.6875 182.785156 163.921875 208.453125 163.03125 L 208.503906 163.03125 C 215.117188 162.820312 221.304688 162.65625 227.066406 162.535156 C 246.214844 162.136719 260.023438 162.105469 268.496094 162.4375 C 279.117188 162.855469 287.386719 171.800781 286.96875 182.421875 C 286.550781 193.039062 277.601562 201.308594 266.984375 200.890625 C 259.28125 200.589844 246.242188 200.628906 227.867188 201.011719 L 227.871094 201.011719 C 222.25 201.128906 216.203125 201.289062 209.730469 201.496094 L 209.785156 201.492188 C 184.078125 202.382812 160.988281 203.152344 140.515625 203.800781 C 140.480469 203.800781 140.449219 203.800781 140.414062 203.804688 C 133.023438 204 126.335938 204.140625 120.351562 204.222656 L 120.347656 204.222656 C 117.183594 204.265625 113.628906 204.246094 109.6875 204.15625 L 109.925781 204.160156 C 110.429688 204.167969 110.898438 204.132812 111.332031 204.0625 C 100.84375 205.765625 90.960938 198.640625 89.257812 188.152344 C 87.554688 177.660156 94.679688 167.777344 105.171875 166.074219 Z M 105.171875 166.074219 " fill-opacity="1" fill-rule="nonzero"/></svg>